<svg width="168" height="267" viewBox="0 0 168 267" fill="none" xmlns="http://www.w3.org/2000/svg">
<path d="M167.841 124.821L201.865 112.103L197.776 74.6103L232.861 60.7762L237.091 98.778L273.589 85.1L277.917 124.444L241.207 137.359L205.515 149.992L209.49 188.064L175.114 199.51L178.764 237.399L145.449 247.729L142.01 210.603L138.388 173.803L171.35 162.201L167.841 124.821Z" fill="#666666"/>
<path d="M164.219 88.0211L160.342 51.2914L194.013 37.3013L197.776 74.6104L164.219 88.0211Z" fill="#262626"/>
<path d="M134.836 137.257L131.354 100.966L164.219 88.0212L167.841 124.822L134.836 137.257Z" fill="#262626"/>
<path d="M99.9467 113.233L96.6768 77.705L127.873 64.6748L131.355 100.966L99.9467 113.233Z" fill="#262626"/>
<path d="M103.288 149.016L134.836 137.257L138.389 173.803L106.444 185.123L75.7723 196.09L72.5023 160.562L69.3029 125.288L99.9471 113.233L103.288 149.016Z" fill="#FF6B00"/>
<path d="M160.342 51.2914L127.874 64.6744L124.533 28.8917L121.263 -6.63664L153.125 -21.221L186.443 -36.4832L190.32 0.246608L156.79 14.7455L160.342 51.2914Z" fill="#262626"/>
<path d="M63.1859 55.7583L93.4775 42.4309L96.677 77.7048L66.2443 90.5234L63.1859 55.7583Z" fill="#262626"/>
<path d="M39.9299 136.991L36.9421 102.48L66.2432 90.5232L69.3016 125.288L39.9299 136.991Z" fill="#262626"/>
</svg>
